<svg height="512pt" viewBox="-31 0 512 512.0005" width="512pt" xmlns="http://www.w3.org/2000/svg" fill="#EEE"><path d="m15 512h420c7.167969 0 12.871094-5.121094 14.363281-11.835938-1.621093-18.925781-12.96875-35.046874-29.363281-42.898437v-202.265625c0-107.519531-87.480469-195-195-195-13.480469 0-19.945312-16.75-10.589844-26.058594 5.625-5.65625 15.554688-5.65625 21.179688 0 5.847656 5.886719 15.339844 5.859375 21.210937.027344 5.875-5.84375 5.875-15.351562.03125-21.210938-16.964843-17.019531-46.730469-16.992187-63.632812-.027343-12.839844 12.792969-17.457031 33.199219-8.699219 51.5625-88.144531 18.703125-154.5 97.078125-154.5 190.707031v199.761719c-17.421875 6.214843-30 22.707031-30 42.238281 0 8.292969 6.710938 15 15 15zm315-60h-45v-60h15c8.292969 0 15-6.707031 15-15 0-8.289062-6.707031-15-15-15h-15v-92h45zm60 0h-30v-182h30zm-.757812-212h-29.769532c-2.371094-44.667969-15.191406-85.074219-34.953125-116.296875 35.941407 27.3125 60.421875 68.878906 64.722657 116.296875zm-59.726563 0h-44.699219c-.988281-43.871094-6.40625-99.867188-20.132812-137.671875 35.453125 22.84375 61.234375 75.269531 64.832031 137.671875zm-105.835937-149.894531c.171874-.003907.335937-.039063.507812-.039063 10.597656 5.71875 28.542969 59.820313 30.441406 149.933594h-59.261718c1.890624-90.003906 19.6875-144.066406 28.3125-149.894531zm-28.679688 179.894531h60v92h-60zm0 122h60v60h-60zm-30-30h-15c-8.289062 0-15 6.710938-15 15 0 8.292969 6.710938 15 15 15h15v60h-45v-182h45zm20.316406-259.671875c-13.726562 37.804687-19.144531 93.800781-20.136718 137.671875h-44.695313c3.597656-62.402344 29.378906-114.828125 64.832031-137.671875zm-59.839844 21.375c-19.757812 31.222656-32.582031 71.628906-34.953124 116.296875h-29.765626c4.300782-47.417969 28.78125-88.984375 64.71875-116.296875zm-65.476562 146.296875h30v182h-30zm0 0"/></svg>
