<?xml version="1.0" encoding="utf-8"?>
<!-- Generator: Adobe Illustrator 24.1.2, SVG Export Plug-In . SVG Version: 6.00 Build 0)  -->
<svg version="1.1" id="Слой_1" xmlns="http://www.w3.org/2000/svg" xmlns:xlink="http://www.w3.org/1999/xlink" x="0px" y="0px"
	 viewBox="0 0 512 512" style="enable-background:new 0 0 512 512;" xml:space="preserve">
<style type="text/css">
	.st0{fill:#1A1A19;}
</style>
<path class="st0" d="M150,262.3h211.6c3.6,0,6.5-2.6,7.2-6c-0.8-9.5-6.5-17.7-14.8-21.6V132.9c0-54.2-44.1-98.2-98.2-98.2
	c-6.8,0-10-8.4-5.3-13.1c2.8-2.8,7.8-2.8,10.7,0c2.9,3,7.7,3,10.7,0c3-2.9,3-7.7,0-10.7c-8.5-8.6-23.5-8.6-32.1,0
	c-6.5,6.4-8.8,16.7-4.4,26c-44.4,9.4-77.8,48.9-77.8,96.1v100.6c-8.8,3.1-15.1,11.4-15.1,21.3C142.5,259,145.9,262.3,150,262.3z
	 M308.7,232.1h-22.7v-30.2h7.6c4.2,0,7.6-3.4,7.6-7.6c0-4.2-3.4-7.6-7.6-7.6h-7.6v-46.3h22.7V232.1z M339,232.1h-15.1v-91.7H339
	V232.1z M338.6,125.3h-15c-1.2-22.5-7.7-42.9-17.6-58.6C324.1,80.5,336.4,101.4,338.6,125.3z M308.5,125.3H286
	c-0.5-22.1-3.2-50.3-10.1-69.4C293.7,67.5,306.7,93.9,308.5,125.3z M255.2,49.8c0.1,0,0.2,0,0.3,0c5.3,2.9,14.4,30.1,15.3,75.5
	h-29.9C241.9,80,250.8,52.7,255.2,49.8z M240.7,140.4H271v46.3h-30.2V140.4z M240.7,201.9H271v30.2h-30.2V201.9z M225.6,186.8h-7.6
	c-4.2,0-7.6,3.4-7.6,7.6c0,4.2,3.4,7.6,7.6,7.6h7.6v30.2h-22.7v-91.7h22.7V186.8z M235.8,56c-6.9,19-9.6,47.3-10.1,69.4h-22.5
	C205,93.9,218,67.5,235.8,56z M205.7,66.7c-10,15.7-16.4,36.1-17.6,58.6h-15C175.3,101.4,187.6,80.5,205.7,66.7z M172.7,140.4h15.1
	v91.7h-15.1V140.4z"/>
<path class="st0" d="M12.4,506.3H224c3.6,0,6.5-2.6,7.2-6c-0.8-9.5-6.5-17.7-14.8-21.6V376.9c0-54.2-44.1-98.2-98.2-98.2
	c-6.8,0-10-8.4-5.3-13.1c2.8-2.8,7.8-2.8,10.7,0c2.9,3,7.7,3,10.7,0c3-2.9,3-7.7,0-10.7c-8.5-8.6-23.5-8.6-32.1,0
	c-6.5,6.4-8.8,16.7-4.4,26c-44.4,9.4-77.8,48.9-77.8,96.1v100.6c-8.8,3.1-15.1,11.4-15.1,21.3C4.8,503,8.2,506.3,12.4,506.3z
	 M171.1,476.1h-22.7v-30.2h7.6c4.2,0,7.6-3.4,7.6-7.6c0-4.2-3.4-7.6-7.6-7.6h-7.6v-46.3h22.7V476.1z M201.3,476.1h-15.1v-91.7h15.1
	V476.1z M200.9,369.3h-15c-1.2-22.5-7.7-42.9-17.6-58.6C186.4,324.5,198.7,345.4,200.9,369.3z M170.8,369.3h-22.5
	c-0.5-22.1-3.2-50.3-10.1-69.4C156,311.5,169,337.9,170.8,369.3z M117.5,293.8c0.1,0,0.2,0,0.3,0c5.3,2.9,14.4,30.1,15.3,75.5h-29.9
	C104.2,324,113.1,296.7,117.5,293.8z M103,384.4h30.2v46.3H103V384.4z M103,445.9h30.2v30.2H103V445.9z M87.9,430.8h-7.6
	c-4.2,0-7.6,3.4-7.6,7.6c0,4.2,3.4,7.6,7.6,7.6h7.6v30.2H65.3v-91.7h22.7V430.8z M98.2,300c-6.9,19-9.6,47.3-10.1,69.4H65.5
	C67.3,337.9,80.3,311.5,98.2,300z M68,310.7c-10,15.7-16.4,36.1-17.6,58.6h-15C37.6,345.4,49.9,324.5,68,310.7z M35,384.4h15.1v91.7
	H35V384.4z"/>
<path class="st0" d="M287.4,506.3H499c3.6,0,6.5-2.6,7.2-6c-0.8-9.5-6.5-17.7-14.8-21.6V376.8c0-54.2-44.1-98.2-98.2-98.2
	c-6.8,0-10-8.4-5.3-13.1c2.8-2.8,7.8-2.8,10.7,0c2.9,3,7.7,3,10.7,0c3-2.9,3-7.7,0-10.7c-8.5-8.6-23.5-8.6-32.1,0
	c-6.5,6.4-8.8,16.7-4.4,26c-44.4,9.4-77.8,48.9-77.8,96.1v100.6c-8.8,3.1-15.1,11.4-15.1,21.3C279.8,502.9,283.2,506.3,287.4,506.3z
	 M446.1,476.1h-22.7v-30.2h7.6c4.2,0,7.6-3.4,7.6-7.6c0-4.2-3.4-7.6-7.6-7.6h-7.6v-46.3h22.7V476.1z M476.3,476.1h-15.1v-91.7h15.1
	V476.1z M475.9,369.3h-15c-1.2-22.5-7.7-42.9-17.6-58.6C461.4,324.5,473.7,345.4,475.9,369.3z M445.8,369.3h-22.5
	c-0.5-22.1-3.2-50.3-10.1-69.4C431,311.4,444,337.9,445.8,369.3z M392.5,293.8c0.1,0,0.2,0,0.3,0c5.3,2.9,14.4,30.1,15.3,75.5h-29.9
	C379.2,323.9,388.1,296.7,392.5,293.8z M378,384.4h30.2v46.3H378V384.4z M378,445.9h30.2v30.2H378V445.9z M362.9,430.8h-7.6
	c-4.2,0-7.6,3.4-7.6,7.6c0,4.2,3.4,7.6,7.6,7.6h7.6v30.2h-22.7v-91.7h22.7V430.8z M373.2,299.9c-6.9,19-9.6,47.3-10.1,69.4h-22.5
	C342.3,337.9,355.3,311.4,373.2,299.9z M343,310.7c-10,15.7-16.4,36.1-17.6,58.6h-15C312.6,345.4,324.9,324.5,343,310.7z M310,384.4
	h15.1v91.7H310V384.4z"/>
</svg>
