<svg height="512.00049pt" viewBox="0 0 512.00049 512.00049" width="512.00049pt" xmlns="http://www.w3.org/2000/svg"><path d="m499.140625 63.230469-50.371094-50.371094c-20.699219-17.144531-41.398437-17.144531-62.097656 0-15.910156 15.910156-17.023437 41.089844-3.363281 58.3125l-31.699219 31.703125 57.515625 57.519531 31.703125-31.703125c19.863281 13.671875 39.300781 12.550782 58.3125-3.363281 17.148437-20.699219 17.148437-41.398437 0-62.097656zm0 0"/><path d="m63.855469 317.363281c-3.492188 3.492188-5.007813 8.5-4.039063 13.339844l16.761719 83.832031-72.253906 72.253906c-5.765625 5.765626-5.765625 15.117188 0 20.886719 6.964843 5.765625 13.925781 5.765625 20.886719 0l72.253906-72.253906 83.832031 16.765625c4.78125.933594 9.230469-.414062 13.339844-4.039062l44.503906-44.503907-130.78125-130.785156zm0 0"/><path d="m277.058594 70.097656c-5.765625-5.765625-15.117188-5.765625-20.886719 0-5.769531 5.769532-5.769531 15.121094 0 20.886719l17.03125 17.03125-143.957031 143.957031 130.78125 130.78125 34.0625-34.058594-47.074219-47.078124c-5.769531-5.765626-5.769531-15.117188 0-20.886719 5.765625-5.765625 15.117187-5.765625 20.886719 0l47.074218 47.078125 34.0625-34.0625-47.078124-47.078125c-5.765626-5.765625-5.765626-15.117188 0-20.886719 5.769531-5.765625 15.121093-5.765625 20.886718 0l47.078125 47.078125 34.058594-34.0625 17.03125 17.03125c6.964844 5.765625 13.925781 5.765625 20.886719 0 5.769531-5.769531 5.769531-15.121094 0-20.886719zm0 0"/></svg>